<?xml version="1.0" encoding="UTF-8" standalone="no"?>
<!DOCTYPE svg PUBLIC "-//W3C//DTD SVG 1.1//EN" "http://www.w3.org/Graphics/SVG/1.1/DTD/svg11.dtd">
<svg viewBox="0 0 1536 1024"
     xmlns="http://www.w3.org/2000/svg"
     xmlns:xlink="http://www.w3.org/1999/xlink"
     xml:space="preserve"
     xmlns:serif="http://www.serif.com/"
     style="color: currentColor; fill: currentColor; fill-rule:evenodd; clip-rule:evenodd; stroke-linejoin:round; stroke-miterlimit:2;">

    <g transform="matrix(1.29426,0,0,1.29426,-122.953,-132.515)">
        <g transform="matrix(1,0,0,1,742,304)">
            <path d="M-4.953,1.391C0.421,0.773 9.499,-0.641 15.637,9.055C23.494,21.466 24.309,33.89 21.875,47.688C16.402,75.743 -0.59,100.083 -17.714,122.329C-18.896,123.865 -40.702,142.135 -40.874,145.89C-41.084,150.447 -23.023,133.302 -20.481,130.542C-11.291,121.965 -0.458,113.272 12.133,113.656C17.909,114.349 22.118,116.546 25.875,121C31.453,129.887 30.109,140.258 28,150C26.327,156.861 24.369,163.646 22.438,170.438C21.674,173.141 20.913,175.845 20.155,178.55C19.687,180.219 19.215,181.888 18.739,183.555C16.662,190.927 15.066,198.307 16,206C17.401,208.821 17.401,208.821 20,210C24.299,210.293 26.769,208.665 30,206.063C41.257,195.426 45.017,179.53 48.438,164.938C53.403,144.1 63.79,126.052 79,111C79.727,110.251 80.454,109.502 81.203,108.73C90.763,99.471 102.703,94.358 116,94C122.627,94.413 126.949,96.791 132,101C132.29,101.242 132.493,102.228 133,103C135.271,102.495 137.243,101.891 139.375,100.938C142.388,99.861 148.389,99.396 152.063,99.688C156.912,100.072 160.852,100.704 163,105C166.173,111.346 163.077,119.559 161.332,125.945C161.055,126.992 160.779,128.038 160.494,129.116C159.609,132.455 158.712,135.79 157.813,139.125C154.427,151.776 149.527,164.163 148.074,177.18C146.813,188.484 149.155,199.817 154.824,198.504C164.583,196.244 172.039,184.772 177,176.875C188.092,159.897 194.32,140.34 195,140C195.87,137.251 196.619,134.545 197.313,131.75C197.637,130.49 200.234,120.009 201.262,115.383C201.469,114.463 201.677,113.543 201.891,112.595C202.286,110.831 202.668,109.065 203.036,107.296C204.641,100.123 207.23,93.638 212.625,88.5C217.226,85.594 221.71,85.303 227,86C229.33,86.307 231.892,88.097 233,90C233.695,91.193 234.062,97.856 234.125,99.75C234.144,105.616 233.089,111.253 232,117C235.371,113.945 237.953,110.731 240.563,107C248.593,95.856 258.664,82.935 272.641,79.316C279.862,78.348 284.991,78.71 291,83C298.87,90.256 301.799,97.954 302.313,108.563C302.221,116.145 300.275,124.642 295.5,130.688C290.993,134.857 287.49,135.459 281.469,135.309C277.717,134.84 275.752,133.555 273,131C271.419,128.771 270.189,126.457 269,124C268.423,122.866 267.845,121.731 267.25,120.563C266.838,119.717 266.316,118.036 266,118C262.822,117.635 261.36,117.757 258.66,119.578C255.502,122.453 253.104,125.538 250.625,129C250.142,129.674 249.658,130.347 249.16,131.042C247.759,133.018 246.375,135.005 245,137C244.367,137.915 243.734,138.83 243.082,139.773C229.915,160.603 223.248,186.594 217.769,210.375C216.152,215.895 213.381,222.206 208,224C202.733,225.756 198.422,225.474 193.25,223.75C188.508,222.169 184.468,213.191 183.516,208.484C183.267,207.253 183.26,207.255 183,206C182.527,206.629 182.054,207.258 181.566,207.906C173.322,218.577 163.111,229.174 149,231C139.574,231.06 132.178,229.988 125.25,223.375C122.188,220.452 118.068,212.965 117,211C114.428,213.374 112.445,215.804 110.5,218.688C103.933,227.582 93.638,234.129 82.938,236.75C72.785,237.614 65.002,236.292 56.855,229.82C54.148,227.164 52.193,224.182 50.227,220.953C49.021,218.873 49.021,218.873 47,217C46.455,217.701 45.909,218.403 45.348,219.125C36.497,230.261 27.743,238.419 14,243C5.246,243.859 -1.73,243.191 -9,238C-15.091,233.651 -15.114,230.474 -15.688,229.688C-19.29,222.311 -19.264,214.491 -19.125,206.438C-19.116,205.429 -19.451,191.077 -11.439,167.523C-8.736,159.575 -1.905,148.52 -9,149C-22.825,149.936 -33.363,168.856 -40.688,180.313C-41.46,181.541 -42.231,182.77 -43,184C-43.639,185.011 -44.279,186.021 -44.938,187.063C-53.219,200.668 -57.918,214.347 -61.641,229.75C-63.644,237.822 -65.751,245.7 -73.188,250.375C-78.989,251.664 -84.068,251.983 -89.438,249.25C-93.558,245.632 -95.69,242.786 -96.309,237.227C-96.858,221.878 -92.78,207.094 -89.363,192.228C-88.493,188.409 -83.579,165.528 -82.125,159.688C-81.821,158.455 -77.297,140.082 -76.131,135.203C-69.027,105.544 -61.751,75.413 -48,48C-47.647,47.285 -36.92,26.412 -30,18C-29.34,18 -17.517,2.834 -4.953,1.391ZM-4.418,34.063C-20.022,51.814 -44.353,111.329 -34,113C-30.478,113.568 -27.472,107.991 -26.976,107.208C-26.468,106.376 -25.961,105.544 -25.438,104.688C-24.912,103.84 -24.386,102.992 -23.844,102.118C-20.151,96.083 -16.684,89.942 -13.375,83.688C-12.962,82.907 -12.549,82.126 -12.123,81.321C-10.034,77.281 -8.356,73.356 -7,69C-6.396,67.636 -5.772,66.281 -5.125,64.938C-0.376,54.409 3.162,43.529 1,32C-2.149,31.676 -2.149,31.676 -4.418,34.063ZM105,126C81.935,142.864 76.994,171.094 76,188C75.947,188.775 77.016,201.371 79,203C81.701,205.218 83.017,204.999 86.563,204.75C96.706,204.038 103.618,195.107 110.523,178.762C112.304,174.547 115.866,163.607 116.313,162.375C117.907,157.63 120.545,146.426 120.73,145.648C122.446,137.95 123.19,130.983 119,124C113.659,120.646 109.702,122.562 105,126Z" style="fill:currentColor;fill-rule:nonzero;"/>
        </g>
        <g transform="matrix(1,0,0,1,1138,535)">
            <path d="M0,0C1.938,1.25 5.424,4.008 3.738,11.652C-0.614,31.387 -46.151,63.063 -48,65C-52.584,67.807 -57.299,70.395 -62,73C-62.676,73.376 -63.352,73.753 -64.049,74.141C-80.752,83.387 -116.083,96.028 -120,97C-137.659,101.382 -142.207,101.805 -156,103C-157.42,103.123 -197.366,106.075 -200.688,106.063C-202.938,106.057 -205.189,106.053 -207.439,106.049C-212.96,106.038 -249.047,106.054 -260.175,105.356C-266.401,104.981 -290.299,103.482 -292.965,103.292C-293.804,103.228 -294.643,103.164 -295.508,103.099C-298.317,102.887 -301.127,102.682 -303.938,102.477C-305.912,102.329 -307.886,102.182 -309.86,102.034C-315.147,101.64 -320.435,101.251 -325.723,100.865C-328.988,100.626 -332.253,100.385 -335.519,100.144C-359.692,98.359 -383.866,96.582 -408.063,95.125C-408.978,95.07 -409.894,95.015 -410.838,94.958C-416.557,94.617 -422.278,94.299 -428,94C-428.898,93.953 -429.796,93.905 -430.721,93.857C-433.526,93.711 -436.331,93.569 -439.137,93.43C-439.98,93.386 -440.824,93.343 -441.693,93.298C-448.107,92.988 -470.26,91.812 -471.891,91.779C-473.473,91.744 -473.473,91.744 -475.087,91.709C-476.828,91.679 -476.828,91.679 -478.605,91.648C-479.811,91.625 -481.016,91.601 -482.258,91.577C-486.234,91.502 -490.211,91.437 -494.188,91.375C-494.866,91.364 -495.544,91.353 -496.243,91.342C-531.613,90.775 -566.807,91.207 -602.088,93.983C-610.409,94.637 -648.322,98.197 -657.625,99.688C-658.49,99.824 -659.356,99.96 -660.247,100.101C-674.58,102.36 -688.83,104.864 -703,108C-704.082,108.232 -705.164,108.465 -706.279,108.704C-721.447,111.991 -736.168,116.147 -750.875,121.063C-751.623,121.312 -752.371,121.561 -753.141,121.818C-762.17,124.847 -771.045,128.132 -779.845,131.774C-782.526,132.816 -795.566,138.38 -797.375,139C-805.124,141.868 -812.257,145.68 -819.52,149.598C-821.012,150.399 -822.506,151.2 -824,152C-824.734,152.396 -825.467,152.791 -826.223,153.199C-826.923,153.565 -827.623,153.931 -828.344,154.309C-828.961,154.635 -829.577,154.962 -830.213,155.299C-833.416,156.556 -835.792,155.968 -839,155C-841.875,153.5 -841.875,153.5 -844,151C-845.237,146.915 -845.623,143.553 -844.016,139.547C-841.154,135.931 -837.702,133.99 -833.75,131.688C-832.955,131.213 -832.161,130.738 -831.342,130.248C-825.524,126.804 -819.613,123.546 -813.597,120.462C-811.051,119.15 -803.003,114.658 -801,114C-798.237,112.8 -795.527,111.494 -792.813,110.188C-789.878,108.785 -786.94,107.391 -784,106C-783.208,105.619 -782.416,105.238 -781.6,104.845C-773.224,100.909 -764.581,97.8 -755.875,94.688C-754.685,94.26 -754.685,94.26 -753.47,93.825C-705.122,76.495 -656.211,65.602 -605.293,59.285C-603.226,59.028 -601.16,58.767 -599.094,58.505C-574.188,55.409 -549.052,54.275 -524,53C-523.223,52.96 -522.446,52.921 -521.645,52.88C-470.2,50.299 -418.436,51.864 -367,54C-365.968,54.042 -364.936,54.085 -363.873,54.128C-361.032,54.247 -358.192,54.374 -355.352,54.504C-354.523,54.539 -353.695,54.574 -352.841,54.611C-347.233,54.883 -311.151,56.111 -295.661,56.571C-283.77,56.924 -219.099,58.73 -218.152,58.816C-217.442,58.877 -170.987,56.543 -162.438,55.75C-161.71,55.685 -160.983,55.62 -160.234,55.552C-147.038,54.359 -134.012,52.522 -121,50C-120.182,49.844 -119.363,49.687 -118.52,49.526C-112.264,48.307 -106.07,46.872 -99.875,45.375C-98.919,45.146 -97.962,44.916 -96.977,44.68C-94.651,44.121 -92.325,43.562 -90,43C-90,42.34 -78.49,39.657 -74.188,38C-66.194,35 -48.34,27.097 -44.142,24.781C-41.445,23.294 -21.687,10.034 -16.594,5.285C-12.058,1.056 -5.375,-1.214 0,0Z" style="fill:currentColor;fill-rule:nonzero;"/>
        </g>
        <g transform="matrix(1,0,0,1,463,339.438)">
            <path d="M0,0C11.645,6.632 16.698,19.417 20.254,31.707C28.464,62.654 26.103,95.745 19,126.563C14.516,146.02 10.615,157.49 6,171.563C-5.173,205.636 -33.119,250.027 -71.875,248.875C-83.036,248.543 -91.789,245.217 -100,237.563C-117.232,221.498 -116.32,200.563 -117,200.563C-120.773,221.223 -138.504,244.09 -159.652,255.531C-162,256.563 -192.398,259.294 -204,248.563C-215.719,237.243 -218.909,220.862 -219.293,205.124C-219.484,182.142 -214.186,159.947 -208.757,137.765C-207.722,133.386 -200.784,110.338 -198.813,104.188C-195.949,95.029 -193.443,85.812 -191.125,76.5C-190.827,75.305 -190.529,74.11 -190.222,72.879C-186.361,58.17 -183.573,42.204 -193.688,42.313C-197.783,42.356 -201.36,43.677 -211.316,53.352C-222.198,63.926 -227.79,82.725 -229.688,97.125C-230.39,105.098 -230.399,112.621 -228.465,120.402C-227.655,124.164 -227.297,127.76 -228,131.563C-231.23,136.205 -235.548,138.445 -241,139.563C-247.658,139.958 -252.998,137.93 -258,133.563C-265.034,125.834 -266.645,114.021 -266.352,103.922C-263.848,79.996 -253.21,53.819 -235.71,37.197C-212.423,15.082 -202.013,16.626 -183.195,17.34C-179.636,17.701 -176.388,18.418 -173,19.563C-172.258,19.796 -171.515,20.029 -170.75,20.27C-163.24,23.048 -159.144,28.111 -155.715,35.23C-154.715,37.657 -153.802,40.065 -153,42.563C-152.809,43.15 -152.618,43.738 -152.422,44.344C-150.381,55.078 -151.848,66.408 -154.031,76.98C-154.25,78.054 -154.469,79.128 -154.694,80.235C-157.175,91.994 -160.464,103.509 -163.817,115.044C-176.404,156.1 -176.404,156.1 -181.25,198.5C-181.271,199.641 -180.377,217.774 -174,224.563C-164.634,234.533 -150.63,217.539 -146.875,210.375C-137.325,192.155 -124.976,160.988 -124.377,159.191C-121.978,151.872 -101.146,91.804 -95.438,84.063C-88.902,75.199 -72.19,75.21 -68,82.563C-63.954,89.662 -65.28,96.082 -67.063,103.688C-67.304,104.799 -71.067,120.828 -72.965,127.66C-84.463,168.774 -98.543,213.213 -67,215.563C-59.578,216.115 -53.629,213.211 -48,208.563C-19.12,179.186 -9.078,124.378 -8.952,84.563C-8.716,59.989 -8.716,59.989 -15,36.563C-25.324,-1.923 -15.11,-8.605 0,0Z" style="fill:currentColor;fill-rule:nonzero;"/>
        </g>
        <g transform="matrix(1,0,0,1,1155,373)">
            <path d="M0,0C5.388,2.548 9.103,4.897 8.794,8.814C7.71,22.556 -10.596,80.784 -11.134,82.655C-13.161,89.923 -14.994,97.997 -12.094,105.273C-11.105,107.162 -9.684,107.873 -7.579,108.71C-2.794,109.189 -2.041,108.659 2.063,106.063C5.488,103.895 6.402,101.042 8.375,98.25C10.741,95.107 12.247,93.382 16.188,92.688C20.926,91.852 26.925,97.685 24.664,105C22.041,113.487 10.506,126.913 -1.021,132.833C-7.898,136.366 -12.847,136.772 -20.323,134.956C-29.673,132.1 -34.757,128.461 -39.418,120.195C-41.533,115.923 -42.923,111.634 -44,107C-44.528,107.926 -44.528,107.926 -45.066,108.871C-48.626,114.977 -58.145,127.516 -59.313,129.063C-59.869,129.702 -62.085,132.148 -63,133C-70.609,140.083 -79.631,144.276 -90,145C-97.455,144.665 -103.463,141.974 -109,137C-127.53,120.352 -112.974,70.641 -111.646,63.435C-109.621,52.443 -99.812,15.447 -90.84,9.59C-85.235,6.48 -80.402,4.859 -74,6C-70.46,7.377 -67.169,8.803 -65,12C-63.554,18.093 -64.575,22.456 -66.316,28.281C-66.568,29.164 -66.82,30.047 -67.079,30.957C-67.617,32.838 -68.162,34.717 -68.711,36.594C-69.567,39.517 -70.407,42.444 -71.242,45.374C-72.334,49.204 -73.43,53.033 -74.531,56.86C-83.895,83.142 -89.385,105.616 -82,111C-77.324,114.409 -72.098,111.502 -69,110C-57.982,104.658 -45.667,68.729 -45.495,68.075C-30.215,10.823 -30.215,10.823 -16.219,1.16C-10.862,-1.641 -6.407,-3.031 0,0Z" style="fill:currentColor;fill-rule:nonzero;"/>
        </g>
        <g transform="matrix(1,0,0,1,638.777,433.527)">
            <path d="M0,0C6.642,7.183 10.645,16.319 10.5,26.09C10.034,30.092 8.647,33.265 6.223,36.473C1.595,39.838 -2.256,39.998 -7.777,39.473C-12.64,37.354 -14.515,34.02 -16.84,29.473C-24.38,14.725 -34.23,17.799 -39.976,20.547C-43.948,22.447 -44.083,24.502 -44.85,27.953C-45.154,32.356 -46.513,36.693 -34.078,44.27C-30.337,46.549 -27.014,49.2 -23.231,51.403C-10.352,58.903 -0.011,68.622 4.327,83.733C7.9,96.176 -2.051,112.102 -9.235,118.339C-15.52,123.794 -26.956,129.237 -28.122,129.77C-42.496,134.818 -55.514,133.141 -69.164,126.824C-72.873,124.906 -80.986,119.617 -81.609,119.176C-89.055,113.401 -93.411,105.515 -94.645,96.199C-94.992,89.072 -93.717,84.098 -89.215,78.473C-85.764,74.947 -82.868,73.061 -77.945,72.434C-74.137,72.502 -71.958,73.393 -68.777,75.473C-65.231,79.643 -63.143,84.771 -60.777,89.66C-57.494,96.31 -53.982,100.984 -46.777,103.473C-40.377,104.107 -35.094,104.5 -29.777,100.473C-25.89,97.528 -25.257,96.792 -26.062,92.262C-27.138,86.201 -37.71,80.85 -47.777,75.473C-57.701,70.173 -79.489,53.051 -79.777,43.473C-80.161,30.716 -78.447,22.141 -72.715,9.988C-69.438,3.042 -57.159,-5.204 -47.777,-8.527C-31.623,-14.251 -13.211,-11.353 0,0Z" style="fill:currentColor;fill-rule:nonzero;"/>
        </g>
        <g transform="matrix(1,0,0,1,522,443)">
            <path d="M-17.832,1.66C-12.032,-1.044 -7.583,-2.251 0,2C13.542,9.593 2.01,36.496 1.188,39.438C-3.284,55.427 -16.587,89.082 -8,97C-2.706,101.882 9.18,95.04 12.203,93.313C15.101,91.952 18.658,89.947 20,92C21.549,94.368 21.93,96.345 21.079,99.164C17.556,110.834 8.193,119.955 -2,126C-9.427,129.971 -16.902,131.641 -25.191,129.41C-32.495,126.309 -38.038,119.694 -41.375,112.625C-45.346,101.295 -45.5,88.392 -44.191,76.59C-43.779,74.015 -35.321,37.196 -30.5,22.313C-30.145,21.185 -25.842,5.395 -17.832,1.66Z" style="fill:currentColor;fill-rule:nonzero;"/>
        </g>
        <g transform="matrix(1,0,0,1,529.066,387.738)">
            <path d="M0,0C6.123,2.74 9.308,6.252 11.746,12.512C13.434,18.136 13.392,23.037 10.953,28.43C7.491,34.401 3.319,38.858 -3.504,40.699C-7.856,41.46 -10.967,41.075 -15.066,39.262C-20.207,35.197 -23.441,30.127 -24.488,23.652C-24.844,16.649 -23.424,10.835 -19.066,5.262C-13.339,0.415 -7.466,-2.667 0,0Z" style="fill:currentColor;fill-rule:nonzero;"/>
        </g>
    </g>
</svg>
